<svg id="Layer_1" data-name="Layer 1" xmlns="http://www.w3.org/2000/svg" width="100.000000pt" height="100.000000pt" viewBox="0 0 82.51 84.76"><defs><style>.cls-1,.cls-2,.cls-3,.cls-8{fill:#fff;}.cls-1{stroke:#000;}.cls-1,.cls-2,.cls-3,.cls-4,.cls-8{stroke-miterlimit:10;}.cls-2{stroke:#cc6e4a;}.cls-2,.cls-3,.cls-4{stroke-width:2px;}.cls-3,.cls-4{stroke:#ca6842;}.cls-4,.cls-5{fill:#ca6842;}.cls-6{fill:#cc6e4a;}.cls-7{fill:#cedced;}.cls-8{stroke:#cedced;}</style></defs><path class="cls-1" d="M90.55,54.86C90.55,73.5,74,90.64,54.31,90.62c-22,0-38.9-21.52-35.82-41.26C20.9,33.9,35.61,19.09,54.31,19.1,74.62,19.1,90.56,36.58,90.55,54.86Z" transform="translate(-13.94 -6.5)"/><path class="cls-2" d="M53.93,23.38a36.44,36.44,0,0,1-6.25,23.5C36.19,63.12,15.29,62,14,61.86" transform="translate(-13.94 -6.5)"/><path class="cls-3" d="M96.43,63.66c-2.33,0-21.53.06-33.87-14.77a38.09,38.09,0,0,1-8.63-25.51" transform="translate(-13.94 -6.5)"/><ellipse class="cls-4" cx="40.4" cy="8.94" rx="19.32" ry="7.94"/><path class="cls-1" d="M623,69.77" transform="translate(-13.94 -6.5)"/><path class="cls-5" d="M87.89,50.53c-1.53-6.21-5.67-11.07-9.58-16A19.93,19.93,0,0,0,70,28.09a5.38,5.38,0,0,0-3.06-1.69c-3.32-.69-6.52-.11-8.82,2.55a6,6,0,0,0,2.56,9.85A51,51,0,0,0,79.08,57.31C83.68,60,89.13,55.55,87.89,50.53Z" transform="translate(-13.94 -6.5)"/><path class="cls-5" d="M42.08,26.11c-4.74,2.59-10.69,4.82-14.15,9.11a28.85,28.85,0,0,0-6.27,15.16c-.48,4.32,5.55,7.76,9,5.18l.58-.45c4.82-1.47,7.51-5.41,11.27-8.59,3.24-2.75,6.72-6.24,6.11-10.37C54.58,32.21,48.68,22.49,42.08,26.11Z" transform="translate(-13.94 -6.5)"/><path class="cls-6" d="M60.31,34.74c7.72,0,7.74-12,0-12s-7.73,12,0,12Z" transform="translate(-13.94 -6.5)"/><path class="cls-6" d="M54.87,27.63l-.1,2.68L65,26.07l-.54-.89L55.65,32c2.38,1.2,3.17,4.63,4.46,6.86a37.56,37.56,0,0,0,6.65,8.31l5.84-10c-2.41-.94-4-3.59-5.44-5.61-4.38-6.3-14.78-.31-10.36,6.06a88.18,88.18,0,0,0,13.31,15.3l5.84-10a9.12,9.12,0,0,1-5-5.09c-2-5.08-10.12-6.29-11.57,0s4.24,10.11,8.23,14c4.3,4.17,9,7.73,14.85,9.26l1.6-11.79c-1.65.15-3.87-2.63-5.24-3.56-2.33-1.59-4.59-1.74-7.17-2.56l3.58,2.76c-.62-.94-.37-3-.56-4.14a50.1,50.1,0,0,0-1.37-6.06A58.33,58.33,0,0,0,69,25.19L60.76,33.4c4.74,2.48,11.31,4.67,15.1,8.5,3.54,3.56,4.92,9.29,5.67,14.08,1.19,7.61,12.76,4.38,11.57-3.19-1-6.47-3.42-13.12-7.69-18.18C80.75,29.1,73.07,26.31,66.82,23a6.05,6.05,0,0,0-8.21,8.21A43.54,43.54,0,0,1,63.14,45c.61,4.07.82,8,5.34,9.6,1.12.4,2.33.27,3.39.73s2.21,1.77,3.22,2.56c2.65,2.07,5.52,3.57,9,3.26,6.4-.57,8.54-10,1.59-11.78a19.32,19.32,0,0,1-8.43-5.09c-2.22-2.08-5.43-4.57-7.08-7.12l.61,4.63.2-.9H59.4A22.4,22.4,0,0,0,72.76,54.39c5.63,2.25,10.09-6.18,5.84-10A74.45,74.45,0,0,1,67.16,31.49L56.8,37.55c3.44,5,6.88,8.89,12.61,11.12s10-6.1,5.84-10C70,33.6,68.47,25,61.71,21.59c-4.26-2.15-10.74,1.5-8.82,6.78a18.29,18.29,0,0,0,3.64,6.18c3.6,4.12,10.06.63,10.24-4.24l.1-2.68c.29-7.73-11.71-7.71-12,0Z" transform="translate(-13.94 -6.5)"/><path class="cls-6" d="M58.27,36.4A9,9,0,0,1,60,39.82l7.38-7.38s0,0,0,0c-4.27-3.93-11.79-.13-10,5.83a24.46,24.46,0,0,0,7.09,11.42,6.14,6.14,0,0,0,8.49,0c2.19-2.2,2.42-6.32,0-8.49a12.64,12.64,0,0,1-4-6.12L58.9,41A13.49,13.49,0,0,0,64.15,44c4.49,1.46,8.43-3.13,7.38-7.38a17.74,17.74,0,0,0-2.9-6.28c-1.93-2.6-5.2-3.92-8.21-2.16-2.56,1.5-4.1,5.6-2.15,8.21Z" transform="translate(-13.94 -6.5)"/><path class="cls-6" d="M63.59,47.35a36.75,36.75,0,0,0,6.18,8.22,6,6,0,0,0,8.48-8.49c-.46-.46-.91-.93-1.34-1.41l-.63-.74c-.74-.86.28.45-.11-.13A41.27,41.27,0,0,1,74,41.3a6,6,0,0,0-10.36,6.05Z" transform="translate(-13.94 -6.5)"/><path class="cls-6" d="M78.81,35a22.71,22.71,0,0,0-9.2-12.49l-6,10.37,11.51,6.56C81.14,42.9,86.82,35,82.34,30a28.53,28.53,0,0,0-13.15-8.26C61.78,19.52,58.62,31.09,66,33.33a16.67,16.67,0,0,1,7.86,5.17l7.27-9.42L69.61,22.51a6.11,6.11,0,0,0-8.21,2.16c-1.74,3-.52,6.36,2.16,8.21a10.1,10.1,0,0,1,3.68,5.31C69.43,45.58,81,42.43,78.81,35Z" transform="translate(-13.94 -6.5)"/><path class="cls-6" d="M42,22.54c-7.49-.64-13.61,5.76-17.65,11.32A40.25,40.25,0,0,0,17,54.41c-.67,7.7,11.33,7.65,12,0a27.53,27.53,0,0,1,4-12c1.69-2.78,5.34-8.2,9-7.89,7.69.66,7.65-11.34,0-12Z" transform="translate(-13.94 -6.5)"/><path class="cls-6" d="M26.24,60.33c15.63-4.13,24.66-16.81,27-32.25,1.14-7.56-10.42-10.82-11.57-3.19C39.94,36.28,34.9,45.63,23.05,48.75c-7.46,2-4.3,13.55,3.19,11.58Z" transform="translate(-13.94 -6.5)"/><path class="cls-6" d="M41.34,33.07c7.72,0,7.73-12,0-12s-7.74,12,0,12Z" transform="translate(-13.94 -6.5)"/><path class="cls-6" d="M79.85,42c7.72,0,7.73-12,0-12s-7.74,12,0,12Z" transform="translate(-13.94 -6.5)"/><path class="cls-6" d="M81.52,44.23c7.72,0,7.74-12,0-12s-7.73,12,0,12Z" transform="translate(-13.94 -6.5)"/><path class="cls-7" d="M21.69,66.28c-1.52,6.86,4.63,12.44,9.56,16.33a39.48,39.48,0,0,0,17.64,8.1,36.82,36.82,0,0,0,36-14.42c4.67-6.15-5.74-12.14-10.36-6.06-5,6.53-13.64,9.85-21.71,9A27.39,27.39,0,0,1,41.64,75.3a28.08,28.08,0,0,1-4.77-3.61c-.74-.69-1.44-1.41-2.11-2.16-1.3-1.45-1-2.41-1.49-.06,1.67-7.53-9.9-10.74-11.58-3.19Z" transform="translate(-13.94 -6.5)"/><path class="cls-7" d="M37.27,74.35a42.47,42.47,0,0,0,10.87-5.51,41.8,41.8,0,0,0,4.69-3.92c.72-.7,2.56-3.16,2.89-3.32l-4.63.6c-2.18-.72-.43.32.34,1.08a22.73,22.73,0,0,0,2.79,2.3,30,30,0,0,0,6.32,3.32A64.63,64.63,0,0,0,66.75,71c1.18.34,2.37.66,3.56,1,.93.27,3.13,1.77,2.32.23V66.16c3.06-1.21,3.62-1.74,1.67-1.56H71.37l-5.84,0c-2,0-3.9,0-5.85,0s-3.62-1-3.42,1.45l-11.79,1.6c.66,1.9.16,2.33-1.71,1.67L41.17,81.17c4.9-.43,9,2.3,13.65,3.31A19.1,19.1,0,0,0,67.39,83.2c7-3.15.94-13.49-6.06-10.36-2.77,1.24-6.9-1-9.41-1.92a24.92,24.92,0,0,0-10.75-1.75c-6.73.61-8.17,9.48-1.6,11.79A12.88,12.88,0,0,0,56,64.53C54,58.54,43.67,59,44.26,66.12c1,12.57,15,10.55,24.19,10.51,4.38,0,10.52.93,13.64-3s1.31-9.18-3-11.34c-3.93-2-8.53-2.57-12.67-4a19.53,19.53,0,0,1-5.52-2.7c-1.59-1.2-2.59-3.07-4.32-4.11-4.41-2.64-7.83,0-10.68,3.24a28.33,28.33,0,0,1-11.83,8C26.86,65.35,30,77,37.27,74.35Z" transform="translate(-13.94 -6.5)"/><path class="cls-7" d="M52.61,38q1.76,3.65,3.56,7.28A34,34,0,0,0,60,51.83a22.21,22.21,0,0,0,4.65,3.88c1.48,1,2.94,2.18,3.28,4.06a1.52,1.52,0,0,0,1.05,1l16,5.27c1.84.6,2.63-2.3.8-2.9l-16-5.26,1,1c-.78-4.21-5.15-5.62-7.86-8.32-1.8-1.78-2.84-4.21-4-6.45q-1.9-3.84-3.77-7.71c-.84-1.74-3.43-.22-2.59,1.52Z" transform="translate(-13.94 -6.5)"/><path class="cls-7" d="M65.75,57.82l3.83,1.84a1.61,1.61,0,0,0,1.16.15A1.5,1.5,0,0,0,71.79,58a1.5,1.5,0,0,0-.69-.89l-3.83-1.84a1.67,1.67,0,0,0-1.16-.15,1.59,1.59,0,0,0-.9.69,1.56,1.56,0,0,0-.15,1.16,1.47,1.47,0,0,0,.69.89Z" transform="translate(-13.94 -6.5)"/><path class="cls-7" d="M86.38,64.27c-.23.35-.47.7-.72,1l.23-.3a14.09,14.09,0,0,1-2.5,2.5l.3-.24a13.83,13.83,0,0,1-1.28.88,1.5,1.5,0,0,0,1.51,2.59,15.41,15.41,0,0,0,5-5,1.51,1.51,0,0,0-.54-2.05,1.53,1.53,0,0,0-2.05.54Z" transform="translate(-13.94 -6.5)"/><path class="cls-7" d="M84.87,68.2a1.5,1.5,0,0,0,0-3,1.5,1.5,0,0,0,0,3Z" transform="translate(-13.94 -6.5)"/><path class="cls-7" d="M81.71,67.46,84,68a1.54,1.54,0,0,0,1.15-.15,1.52,1.52,0,0,0,.69-.9,1.5,1.5,0,0,0-1.05-1.84l-2.23-.56a1.57,1.57,0,0,0-1.16.16,1.49,1.49,0,0,0-.68.89,1.51,1.51,0,0,0,.15,1.16,1.57,1.57,0,0,0,.89.69Z" transform="translate(-13.94 -6.5)"/><path class="cls-7" d="M84.11,74.83a22.68,22.68,0,0,0,3.27-8.3,1.5,1.5,0,1,0-2.89-.8,21.82,21.82,0,0,1-1.13,4.06l-.12.3c0,.13-.11.25-.17.38-.15.35-.31.68-.49,1a19.58,19.58,0,0,1-1.06,1.82,1.5,1.5,0,0,0,2.59,1.52Z" transform="translate(-13.94 -6.5)"/><path class="cls-7" d="M86.27,73.22l2.15-7.84a1.5,1.5,0,1,0-2.89-.79l-2.15,7.83a1.5,1.5,0,1,0,2.89.8Z" transform="translate(-13.94 -6.5)"/><path class="cls-7" d="M86.27,73.38s.08-.62,0-.32l.09-.58c.06-.34.13-.67.2-1a17.54,17.54,0,0,1,.6-2l.18-.48s.23-.57.12-.32c.14-.31.28-.62.44-.93A17.79,17.79,0,0,1,89,65.83a1.52,1.52,0,0,0-.54-2.06,1.54,1.54,0,0,0-2,.54,20.6,20.6,0,0,0-3.17,9.07,1.5,1.5,0,0,0,1.5,1.5,1.54,1.54,0,0,0,1.5-1.5Z" transform="translate(-13.94 -6.5)"/><path class="cls-7" d="M86.32,73.39c0-.18,0-.17,0,0,0-.08,0-.16,0-.24s.05-.33.09-.49.12-.57.19-.86a15.19,15.19,0,0,1,.6-1.84,1.22,1.22,0,0,1,.07-.17c-.07.17-.08.17,0,0l.21-.45c.14-.28.28-.56.43-.83a16.18,16.18,0,0,1,1-1.63,1.5,1.5,0,0,0-.54-2,1.54,1.54,0,0,0-2,.54,16.8,16.8,0,0,0-3.07,8,1.5,1.5,0,0,0,1.5,1.5,1.56,1.56,0,0,0,1.5-1.5Z" transform="translate(-13.94 -6.5)"/><path class="cls-7" d="M86.14,73.57A12.84,12.84,0,0,0,88.55,65a1.54,1.54,0,0,0-1.5-1.5,1.51,1.51,0,0,0-1.5,1.5,10.91,10.91,0,0,1,0,2.06l0,.26c0-.19,0-.19,0,0l-.06.39c-.07.33-.15.67-.24,1a8.68,8.68,0,0,1-.33,1s-.18.43,0,.12c-.07.16-.14.32-.22.47a11.41,11.41,0,0,1-1.07,1.77,1.5,1.5,0,0,0,.53,2,1.55,1.55,0,0,0,2.06-.54Z" transform="translate(-13.94 -6.5)"/><path class="cls-7" d="M19.21,64.31A14.87,14.87,0,0,0,23,70.54a1.5,1.5,0,0,0,2.12-2.12,12.9,12.9,0,0,1-1.05-1.17s-.21-.26-.06-.07,0,0,0,0l-.22-.3c-.16-.23-.31-.46-.45-.7a12.34,12.34,0,0,1-.74-1.39l-.08-.17s-.11-.25,0,0,0,0,0-.08-.05-.12-.07-.17c-.1-.27-.19-.53-.27-.79a1.5,1.5,0,1,0-2.89.79Z" transform="translate(-13.94 -6.5)"/><path class="cls-7" d="M18.64,63.9a15.45,15.45,0,0,0,4.3,8.91,1.51,1.51,0,0,0,2.12,0,1.53,1.53,0,0,0,0-2.12c-.25-.25-.5-.52-.73-.79l-.16-.2-.08-.1c.1.14-.06-.07-.08-.1l-.15-.2a13.43,13.43,0,0,1-1.11-1.86c-.07-.15-.15-.3-.22-.46l-.05-.11c.07.17,0-.08,0-.11a10.35,10.35,0,0,1-.36-1c-.1-.33-.19-.65-.27-1s-.08-.38-.11-.56-.1-.64-.06-.3a1.63,1.63,0,0,0-.44-1.06,1.54,1.54,0,0,0-1.06-.44c-.72,0-1.61.67-1.5,1.5Z" transform="translate(-13.94 -6.5)"/><path class="cls-7" d="M23.06,65.12c3.44-1.9,7.47-2.23,11.13-3.55a33.74,33.74,0,0,0,8.75-4.7A34.76,34.76,0,0,0,54.87,40.8C55.52,39,52.62,38.2,52,40A31.33,31.33,0,0,1,40.53,54.93,31,31,0,0,1,32,59.14c-3.52,1.08-7.19,1.58-10.46,3.39-1.69.93-.17,3.52,1.52,2.59Z" transform="translate(-13.94 -6.5)"/><path class="cls-7" d="M53.62,38.61a1.5,1.5,0,0,0,0-3,1.5,1.5,0,0,0,0,3Z" transform="translate(-13.94 -6.5)"/><path class="cls-7" d="M53.62,38.06a1.5,1.5,0,0,0,0-3,1.5,1.5,0,0,0,0,3Z" transform="translate(-13.94 -6.5)"/><path class="cls-7" d="M52.86,44a10.4,10.4,0,0,0,2.49,9.17c2.3,2.74,5.67,4.31,8.86,5.75,1.75.79,3.27-1.79,1.52-2.59-5.56-2.52-7.88-8.66-9.79-14a1.5,1.5,0,0,0-2.94.4c-.19,3.11-.41,6.21-.68,9.3-.17,2,2.78,1.88,3,0,.28-2.36-1.85-4.23-4-4.5C48.65,47.18,46.48,49.06,45,51a1.51,1.51,0,0,0,1.82,2.36l5.73-3-1.82-2.35a58.83,58.83,0,0,0-9.06,9.2,16.8,16.8,0,0,1-1.89,2.32,5,5,0,0,1-2.71.87l-7.13,1.06.79,2.9a27.37,27.37,0,0,0,13.26-8.9c1.21-1.48-.9-3.62-2.12-2.12a24.63,24.63,0,0,1-11.93,8.12,1.5,1.5,0,0,0,.79,2.9c2.54-.38,5.08-.74,7.61-1.14A7.1,7.1,0,0,0,43.2,60,58.85,58.85,0,0,1,52.8,50c1.37-1.12-.37-3.13-1.81-2.36l-5.74,3,1.82,2.36c.84-1,1.88-2.33,3.27-2.59a1.53,1.53,0,0,1,2,1.5h3c.27-3.09.49-6.19.68-9.3l-3,.4c2.16,6.08,4.88,13,11.16,15.83l1.52-2.59c-4.45-2-11.47-5.45-10-11.53.46-1.88-2.43-2.68-2.89-.8Z" transform="translate(-13.94 -6.5)"/><path class="cls-7" d="M53.94,46.35h0l.36-.15a2.19,2.19,0,0,1-.5.14l.4-.06a2,2,0,0,1-.55,0l.4.05a2,2,0,0,1-.53-.14l.36.15a2.22,2.22,0,0,1-.42-.25l.3.24a1.34,1.34,0,0,1-.21-.2,1.51,1.51,0,0,0-2.13,0A1.56,1.56,0,0,0,51,47.2a1.59,1.59,0,0,0,.44,1.06,3.49,3.49,0,0,0,.52.43,1.67,1.67,0,0,0,.28.18,3.43,3.43,0,0,0,.94.35,3.65,3.65,0,0,0,1,.08,4.13,4.13,0,0,0,.69-.11,4,4,0,0,0,.65-.25,1.12,1.12,0,0,0,.42-.39,1,1,0,0,0,.26-.51,1,1,0,0,0,0-.59,1.12,1.12,0,0,0-.18-.56,1.5,1.5,0,0,0-.89-.69l-.4-.05a1.47,1.47,0,0,0-.76.2Z" transform="translate(-13.94 -6.5)"/><path class="cls-2" d="M53.93,23.38a36.44,36.44,0,0,1-6.25,23.5C36.19,63.12,15.29,62,14,61.86" transform="translate(-13.94 -6.5)"/><path class="cls-3" d="M96.43,63.66c-2.33,0-21.53.06-33.87-14.77a38.09,38.09,0,0,1-8.63-25.51" transform="translate(-13.94 -6.5)"/><path class="cls-8" d="M46.34,74.86c-.12,6.69,4.5,11.1,8.12,10.41,2.95-.56,5.68-4.59,5.63-9.67" transform="translate(-13.94 -6.5)"/></svg>
